<?xml version="1.0" encoding="UTF-8"?>
<!DOCTYPE svg PUBLIC "-//W3C//DTD SVG 1.1//EN" "http://www.w3.org/Graphics/SVG/1.1/DTD/svg11.dtd">
<svg xmlns="http://www.w3.org/2000/svg" version="1.1" width="375px" height="473px" style="shape-rendering:geometricPrecision; text-rendering:geometricPrecision; image-rendering:optimizeQuality; fill-rule:evenodd; clip-rule:evenodd" xmlns:xlink="http://www.w3.org/1999/xlink">
<g><path style="opacity:1" fill="#fefefe" d="M 1.5,-0.5 C 125.833,-0.5 250.167,-0.5 374.5,-0.5C 374.5,71.8333 374.5,144.167 374.5,216.5C 348.394,258.936 312.394,289.936 266.5,309.5C 266.047,304.948 264.714,300.615 262.5,296.5C 267.167,296.5 271.833,296.5 276.5,296.5C 276.724,292.821 277.058,289.154 277.5,285.5C 278.117,285.389 278.617,285.056 279,284.5C 279.826,271.719 281.493,259.052 284,246.5C 285.883,245.347 286.716,243.681 286.5,241.5C 285.215,243.062 283.715,244.396 282,245.5C 259.866,244.516 237.7,244.183 215.5,244.5C 215.5,241.833 215.5,239.167 215.5,236.5C 218.779,237.492 222.112,237.659 225.5,237C 226.692,235.088 227.692,233.088 228.5,231C 231.095,230.774 233.595,230.274 236,229.5C 237.896,231.53 240.063,233.197 242.5,234.5C 244.917,231.917 247.751,229.917 251,228.5C 251.725,225.623 251.225,222.957 249.5,220.5C 251.75,214.533 256.083,212.199 262.5,213.5C 262.38,209.958 262.714,206.458 263.5,203C 262.121,200.372 259.955,198.539 257,197.5C 255.54,192.36 256.707,188.026 260.5,184.5C 258.234,180.957 255.734,177.624 253,174.5C 251.216,175.309 249.383,175.976 247.5,176.5C 245.292,175.137 242.959,173.97 240.5,173C 239.556,170.281 239.223,167.448 239.5,164.5C 236.367,163.735 233.2,163.068 230,162.5C 226.286,163.226 224.453,165.559 224.5,169.5C 221.751,169.274 219.084,169.607 216.5,170.5C 215.019,169.52 213.685,168.353 212.5,167C 208.08,167.291 204.246,169.124 201,172.5C 200.709,174.783 201.209,176.95 202.5,179C 201.213,181.071 200.047,183.238 199,185.5C 196.281,186.444 193.448,186.777 190.5,186.5C 190.5,187.5 190.5,188.5 190.5,189.5C 188.784,189.371 187.117,189.038 185.5,188.5C 185.192,186.076 185.526,183.743 186.5,181.5C 191.237,179.717 194.404,176.384 196,171.5C 197.107,165.213 197.607,158.88 197.5,152.5C 198.79,151.942 199.623,150.942 200,149.5C 200.667,145.167 200.667,140.833 200,136.5C 196.591,130.592 191.758,126.258 185.5,123.5C 182.474,121.981 179.141,121.315 175.5,121.5C 172.975,121.503 170.641,121.837 168.5,122.5C 163.559,124.575 159.225,127.742 155.5,132C 153.305,132.409 151.305,131.909 149.5,130.5C 149.082,129.778 148.416,129.278 147.5,129C 141.843,128.501 136.176,128.334 130.5,128.5C 130.545,132.351 129.379,135.684 127,138.5C 124.194,139.57 121.527,140.903 119,142.5C 116.589,140.422 113.922,138.755 111,137.5C 107.345,140.769 103.678,144.102 100,147.5C 100.242,151.289 101.742,154.623 104.5,157.5C 102.892,160.382 101.559,163.382 100.5,166.5C 97.6727,167.932 94.6727,168.599 91.5,168.5C 91.5,174.5 91.5,180.5 91.5,186.5C 94.836,186.467 98.0027,187.134 101,188.5C 102.099,191.864 103.599,195.03 105.5,198C 103.281,200.324 101.615,202.99 100.5,206C 103.044,209.604 106.044,212.771 109.5,215.5C 110.5,216.167 111.5,216.833 112.5,217.5C 115.167,215.833 117.833,214.167 120.5,212.5C 123.207,213.578 125.874,214.578 128.5,215.5C 128.5,218.5 128.5,221.5 128.5,224.5C 129.833,224.5 131.167,224.5 132.5,224.5C 130.889,242.767 134.055,260.1 142,276.5C 142.759,278.063 143.926,279.063 145.5,279.5C 141.083,287.124 137.25,295.124 134,303.5C 133.324,308.871 133.491,314.204 134.5,319.5C 128.666,318.955 122.999,317.955 117.5,316.5C 117.5,316.167 117.5,315.833 117.5,315.5C 113.788,302.588 108.288,290.588 101,279.5C 106.886,290.681 111.719,302.348 115.5,314.5C 112.689,314.174 110.022,313.341 107.5,312C 106.663,310.989 106.33,309.822 106.5,308.5C 102.014,309.85 97.6805,309.35 93.5,307C 84.8107,303.431 76.4774,299.098 68.5,294C 67.9781,293.439 67.6448,292.772 67.5,292C 70.4973,289.005 72.664,285.505 74,281.5C 74.6776,279.402 74.5109,277.402 73.5,275.5C 78.7829,272.059 83.9496,268.392 89,264.5C 92.5664,268.622 95.8997,272.955 99,277.5C 99.3152,276.092 98.9819,274.759 98,273.5C 95.2429,270.571 93.0762,267.238 91.5,263.5C 92.1925,262.482 92.8592,261.482 93.5,260.5C 99.3853,254.344 102.219,247.011 102,238.5C 93.0666,236.482 84.5666,237.482 76.5,241.5C 75.5041,241.586 74.6708,241.252 74,240.5C 72.038,235.417 69.538,230.75 66.5,226.5C 68.425,232.182 70.7583,237.682 73.5,243C 69.6401,245.695 66.3067,248.862 63.5,252.5C 61.9382,252.733 60.6049,253.4 59.5,254.5C 50.3635,252.341 41.6968,253.508 33.5,258C 32.273,259.587 32.6063,260.921 34.5,262C 37.1517,263.599 39.8183,265.099 42.5,266.5C 44.5,268.833 46.5,271.167 48.5,273.5C 47.8091,275.022 46.6424,276.022 45,276.5C 31.3045,266.305 19.4712,254.305 9.5,240.5C 18.3819,239.567 27.3819,238.401 36.5,237C 37.0814,236.107 37.4148,235.107 37.5,234C 28.426,215.688 18.926,197.522 9,179.5C 6.92512,177.352 4.59179,177.018 2,178.5C 1.83333,171.333 1.66667,164.167 1.5,157C 1.54947,149.206 2.21614,141.539 3.5,134C 2.19194,119.949 1.52527,105.783 1.5,91.5C 1.83333,77.8333 2.16667,64.1667 2.5,50.5C 3.83333,48.5 5.5,46.8333 7.5,45.5C 5.25291,44.7554 3.41957,43.422 2,41.5C 1.50009,27.504 1.33343,13.504 1.5,-0.5 Z"/></g>
<g><path style="opacity:1" fill="#44b5af" d="M 198.5,24.5 C 200.465,24.9483 200.798,25.9483 199.5,27.5C 197.481,26.8671 197.147,25.8671 198.5,24.5 Z"/></g>
<g><path style="opacity:1" fill="#37b8b2" d="M 161.5,35.5 C 163.736,36.3891 165.736,37.7224 167.5,39.5C 165.473,40.6933 163.973,42.36 163,44.5C 161.315,42.9825 159.815,41.3159 158.5,39.5C 159.91,38.4305 160.91,37.0972 161.5,35.5 Z"/></g>
<g><path style="opacity:1" fill="#65c4bf" d="M 143.5,48.5 C 144.586,48.62 145.253,49.2867 145.5,50.5C 144.696,52.9573 143.696,52.9573 142.5,50.5C 142.863,49.8165 143.196,49.1499 143.5,48.5 Z"/></g>
<g><path style="opacity:1" fill="#f4f4f4" d="M 43.5,50.5 C 44.2506,49.4265 45.2506,49.2599 46.5,50C 51.5116,53.0182 56.5116,56.0182 61.5,59C 59.1116,59.3034 56.9449,60.1367 55,61.5C 51.6667,75.5 48.3333,89.5 45,103.5C 43.1297,106.018 40.6297,107.352 37.5,107.5C 30.2735,104.553 23.2735,101.053 16.5,97C 12.7882,94.3981 11.6215,90.8981 13,86.5C 23.6373,76.8635 33.9706,66.8635 44,56.5C 44.7891,54.2884 44.6225,52.2884 43.5,50.5 Z"/></g>
<g><path style="opacity:1" fill="#c1c4c6" d="M 143.5,64.5 C 143.47,63.5028 143.97,62.8361 145,62.5C 168.96,55.5695 192.793,55.9029 216.5,63.5C 215.833,63.8333 215.167,64.1667 214.5,64.5C 190.82,57.8867 167.153,57.8867 143.5,64.5 Z"/></g>
<g><path style="opacity:1" fill="#b5b9bb" d="M 143.5,64.5 C 140.207,66.7761 136.54,68.1095 132.5,68.5C 135.793,66.2239 139.46,64.8905 143.5,64.5 Z"/></g>
<g><path style="opacity:1" fill="#aae2e0" d="M 272.5,67.5 C 267.438,67.2743 262.438,67.6076 257.5,68.5C 257.611,67.8826 257.944,67.3826 258.5,67C 263.352,66.1849 268.019,66.3516 272.5,67.5 Z"/></g>
<g><path style="opacity:1" fill="#dfdfdf" d="M 33.5,68.5 C 35.1992,68.3398 36.8659,68.5065 38.5,69C 41.1389,73.4802 44.8055,76.6469 49.5,78.5C 47.5284,87.22 44.8618,95.72 41.5,104C 39.6354,105.301 37.6354,105.635 35.5,105C 28.8341,101.669 22.5008,97.8359 16.5,93.5C 15.4798,91.5675 15.3131,89.5675 16,87.5C 21.6712,80.9964 27.5045,74.663 33.5,68.5 Z"/></g>
<g><path style="opacity:1" fill="#b3b8b9" d="M 243.5,74.5 C 243.573,76.0269 242.906,77.0269 241.5,77.5C 235.904,73.027 229.57,69.527 222.5,67C 224.553,66.6753 226.553,67.0087 228.5,68C 233.329,70.7524 238.329,72.9191 243.5,74.5 Z"/></g>
<g><path style="opacity:1" fill="#14b4ae" d="M 272.5,67.5 C 289.351,69.8517 297.184,79.5184 296,96.5C 294.058,104.604 288.892,108.937 280.5,109.5C 272.5,109.5 264.5,109.5 256.5,109.5C 242.273,108.942 235.94,101.609 237.5,87.5C 238.298,83.911 239.631,80.5777 241.5,77.5C 242.906,77.0269 243.573,76.0269 243.5,74.5C 246.603,72.91 249.603,71.0767 252.5,69C 254.134,68.5065 255.801,68.3398 257.5,68.5C 262.438,67.6076 267.438,67.2743 272.5,67.5 Z"/></g>
<g><path style="opacity:1" fill="#f4f4f4" d="M 237.5,87.5 C 235.94,101.609 242.273,108.942 256.5,109.5C 263.989,110.329 271.656,110.829 279.5,111C 272.654,111.172 265.987,111.672 259.5,112.5C 252.051,112.377 245.384,114.377 239.5,118.5C 232.327,114.824 224.827,111.824 217,109.5C 212.729,110.226 211.563,112.56 213.5,116.5C 199.607,112.058 185.607,107.892 171.5,104C 166.508,101.839 161.841,99.1724 157.5,96C 150.543,90.0446 149.876,83.5446 155.5,76.5C 159.366,73.6137 163.7,71.7804 168.5,71C 193.32,69.4563 216.32,74.9563 237.5,87.5 Z"/></g>
<g><path style="opacity:1" fill="#a0a5a7" d="M 132.5,68.5 C 128.818,71.0078 124.818,73.0078 120.5,74.5C 123.803,71.1726 127.803,69.1726 132.5,68.5 Z"/></g>
<g><path style="opacity:1" fill="#a1a6a9" d="M 120.5,74.5 C 116.181,77.9957 111.515,80.9957 106.5,83.5C 110.343,79.3437 115.009,76.3437 120.5,74.5 Z"/></g>
<g><path style="opacity:1" fill="#26353a" d="M 246.5,85.5 C 259.85,85.1675 273.183,85.5008 286.5,86.5C 291.688,90.4945 291.688,94.6612 286.5,99C 272.5,99.6667 258.5,99.6667 244.5,99C 241.651,96.4406 240.817,93.2739 242,89.5C 243.667,88.2668 245.167,86.9335 246.5,85.5 Z"/></g>
<g><path style="opacity:1" fill="#eceded" d="M 251.5,90.5 C 252.833,90.5 254.167,90.5 255.5,90.5C 255.778,92.3464 255.111,93.6798 253.5,94.5C 251.889,93.6798 251.222,92.3464 251.5,90.5 Z"/></g>
<g><path style="opacity:1" fill="#e1e3e3" d="M 276.5,89.5 C 278.346,89.2222 279.68,89.8888 280.5,91.5C 279.68,93.1112 278.346,93.7778 276.5,93.5C 276.5,92.1667 276.5,90.8333 276.5,89.5 Z"/></g>
<g><path style="opacity:1" fill="#b2b5b8" d="M 261.5,92.5 C 264.297,96.3704 267.13,96.3704 270,92.5C 270.035,95.2908 268.535,96.6242 265.5,96.5C 262.488,96.8213 261.155,95.488 261.5,92.5 Z"/></g>
<g><path style="opacity:1" fill="#a2a7a9" d="M 106.5,96.5 C 107.239,96.369 107.906,96.5357 108.5,97C 105.948,99.8529 103.115,102.353 100,104.5C 99.3333,103.833 99.3333,103.167 100,102.5C 102.335,100.6 104.502,98.5998 106.5,96.5 Z"/></g>
<g><path style="opacity:1" fill="#989ea0" d="M 106.5,83.5 C 96.8488,92.1522 87.8488,101.486 79.5,111.5C 80.8089,108.222 82.6422,105.222 85,102.5C 90.5,97 96,91.5 101.5,86C 103.078,84.9055 104.745,84.0722 106.5,83.5 Z"/></g>
<g><path style="opacity:1" fill="#94cecc" d="M 256.5,109.5 C 264.5,109.5 272.5,109.5 280.5,109.5C 280.782,110.778 281.449,111.778 282.5,112.5C 274.833,112.5 267.167,112.5 259.5,112.5C 265.987,111.672 272.654,111.172 279.5,111C 271.656,110.829 263.989,110.329 256.5,109.5 Z"/></g>
<g><path style="opacity:1" fill="#44bbb6" d="M 315.5,110.5 C 320.222,111.915 320.555,113.915 316.5,116.5C 313.025,114.916 312.692,112.916 315.5,110.5 Z"/></g>
<g><path style="opacity:1" fill="#067b78" d="M 259.5,112.5 C 267.167,112.5 274.833,112.5 282.5,112.5C 286.172,113.241 289.839,114.407 293.5,116C 295.063,116.759 296.063,117.926 296.5,119.5C 281.497,124.471 266.164,125.638 250.5,123C 246.381,122.356 242.715,120.856 239.5,118.5C 245.384,114.377 252.051,112.377 259.5,112.5 Z"/></g>
<g><path style="opacity:1" fill="#9ca2a4" d="M 79.5,111.5 C 76.8899,116.767 73.8899,121.767 70.5,126.5C 72.2396,120.757 75.2396,115.757 79.5,111.5 Z"/></g>
<g><path style="opacity:1" fill="#68c9c4" d="M 338.5,115.5 C 339.978,115.238 341.311,115.571 342.5,116.5C 341.68,118.111 340.346,118.778 338.5,118.5C 338.5,117.5 338.5,116.5 338.5,115.5 Z"/></g>
<g><path style="opacity:1" fill="#969c9f" d="M 168.5,122.5 C 170.641,121.837 172.975,121.503 175.5,121.5C 179.141,121.315 182.474,121.981 185.5,123.5C 179.87,122.708 174.203,122.375 168.5,122.5 Z"/></g>
<g><path style="opacity:1" fill="#15b4ae" d="M 239.5,118.5 C 242.715,120.856 246.381,122.356 250.5,123C 266.164,125.638 281.497,124.471 296.5,119.5C 302.44,130.689 305.274,142.689 305,155.5C 304.184,156.823 303.017,157.489 301.5,157.5C 300.833,157.167 300.167,156.833 299.5,156.5C 296.841,153.191 294.674,149.524 293,145.5C 290.491,153.352 286.325,160.185 280.5,166C 266.067,173.384 254.9,169.884 247,155.5C 243.614,148.906 241.614,141.906 241,134.5C 234.915,130.873 228.748,127.373 222.5,124C 219.335,121.665 216.335,119.165 213.5,116.5C 211.563,112.56 212.729,110.226 217,109.5C 224.827,111.824 232.327,114.824 239.5,118.5 Z"/></g>
<g><path style="opacity:1" fill="#263237" d="M 168.5,122.5 C 174.203,122.375 179.87,122.708 185.5,123.5C 191.758,126.258 196.591,130.592 200,136.5C 200.667,140.833 200.667,145.167 200,149.5C 199.623,150.942 198.79,151.942 197.5,152.5C 198.67,143.341 195.336,136.341 187.5,131.5C 185.35,133.149 183.35,134.982 181.5,137C 179.122,137.511 176.788,138.178 174.5,139C 173.62,140.356 173.286,141.856 173.5,143.5C 172.599,144.29 171.932,145.29 171.5,146.5C 167.351,147.819 164.684,150.652 163.5,155C 156.333,154.15 153.333,157.317 154.5,164.5C 153.728,163.306 152.728,162.306 151.5,161.5C 150.708,157.789 149.708,154.122 148.5,150.5C 146.802,151.681 145.135,151.681 143.5,150.5C 145.88,148.397 145.213,147.23 141.5,147C 139.876,145.883 138.876,144.383 138.5,142.5C 140.185,139.553 140.851,136.553 140.5,133.5C 142.92,130.923 145.92,129.923 149.5,130.5C 151.305,131.909 153.305,132.409 155.5,132C 159.225,127.742 163.559,124.575 168.5,122.5 Z"/></g>
<g><path style="opacity:1" fill="#f4f4f4" d="M 149.5,130.5 C 145.92,129.923 142.92,130.923 140.5,133.5C 140.851,136.553 140.185,139.553 138.5,142.5C 138.876,144.383 139.876,145.883 141.5,147C 145.213,147.23 145.88,148.397 143.5,150.5C 145.135,151.681 146.802,151.681 148.5,150.5C 149.708,154.122 150.708,157.789 151.5,161.5C 143.85,158.367 136.517,158.867 129.5,163C 123.463,169.133 121.963,176.3 125,184.5C 127.649,189.068 131.483,192.068 136.5,193.5C 132.441,200.346 129.774,207.68 128.5,215.5C 125.874,214.578 123.207,213.578 120.5,212.5C 117.833,214.167 115.167,215.833 112.5,217.5C 111.5,216.833 110.5,216.167 109.5,215.5C 106.044,212.771 103.044,209.604 100.5,206C 101.615,202.99 103.281,200.324 105.5,198C 103.599,195.03 102.099,191.864 101,188.5C 98.0027,187.134 94.836,186.467 91.5,186.5C 91.5,180.5 91.5,174.5 91.5,168.5C 94.6727,168.599 97.6727,167.932 100.5,166.5C 101.559,163.382 102.892,160.382 104.5,157.5C 101.742,154.623 100.242,151.289 100,147.5C 103.678,144.102 107.345,140.769 111,137.5C 113.922,138.755 116.589,140.422 119,142.5C 121.527,140.903 124.194,139.57 127,138.5C 129.379,135.684 130.545,132.351 130.5,128.5C 136.176,128.334 141.843,128.501 147.5,129C 148.416,129.278 149.082,129.778 149.5,130.5 Z"/></g>
<g><path style="opacity:1" fill="#c7cacb" d="M 74.5,145.5 C 77.7199,134.395 82.5532,124.061 89,114.5C 84.6551,125.021 79.8218,135.354 74.5,145.5 Z"/></g>
<g><path style="opacity:1" fill="#9ca2a4" d="M 70.5,126.5 C 70.6567,127.873 70.49,129.207 70,130.5C 68.2507,133.949 66.4174,137.283 64.5,140.5C 65.4316,135.311 67.4316,130.644 70.5,126.5 Z"/></g>
<g><path style="opacity:1" fill="#1a5a5c" d="M 150.5,137.5 C 151.124,137.917 151.457,138.584 151.5,139.5C 151.046,142.222 150.38,144.889 149.5,147.5C 148.3,144.027 148.634,140.694 150.5,137.5 Z"/></g>
<g><path style="opacity:1" fill="#73655d" d="M 173.5,143.5 C 175.369,144.165 177.369,144.831 179.5,145.5C 176.914,146.48 174.247,146.813 171.5,146.5C 171.932,145.29 172.599,144.29 173.5,143.5 Z"/></g>
<g><path style="opacity:1" fill="#222b31" d="M 262.5,128.5 C 271.719,127.563 276.219,131.563 276,140.5C 273.462,146.698 268.962,148.865 262.5,147C 255.869,140.806 255.869,134.639 262.5,128.5 Z"/></g>
<g><path style="opacity:1" fill="#e7eeee" d="M 263.5,131.5 C 270.87,130.395 274.037,133.395 273,140.5C 268.578,147.059 264.245,147.059 260,140.5C 258.665,136.392 259.832,133.392 263.5,131.5 Z"/></g>
<g><path style="opacity:1" fill="#a2e1df" d="M 265.5,132.5 C 267.394,133.048 269.06,134.048 270.5,135.5C 268.714,135.043 266.714,135.043 264.5,135.5C 263.278,137.909 263.945,139.742 266.5,141C 263.522,141.86 262.188,140.693 262.5,137.5C 262.771,135.307 263.771,133.641 265.5,132.5 Z"/></g>
<g><path style="opacity:1" fill="#fabc9b" d="M 197.5,152.5 C 197.607,158.88 197.107,165.213 196,171.5C 194.404,176.384 191.237,179.717 186.5,181.5C 185.526,183.743 185.192,186.076 185.5,188.5C 185.5,188.833 185.5,189.167 185.5,189.5C 183.137,196.683 178.137,199.183 170.5,197C 166.288,194.289 162.954,190.789 160.5,186.5C 160.5,180.833 160.5,175.167 160.5,169.5C 160.179,167.952 159.179,167.285 157.5,167.5C 156.167,166.833 155.167,165.833 154.5,164.5C 153.333,157.317 156.333,154.15 163.5,155C 164.684,150.652 167.351,147.819 171.5,146.5C 174.247,146.813 176.914,146.48 179.5,145.5C 177.369,144.831 175.369,144.165 173.5,143.5C 173.286,141.856 173.62,140.356 174.5,139C 176.788,138.178 179.122,137.511 181.5,137C 183.35,134.982 185.35,133.149 187.5,131.5C 195.336,136.341 198.67,143.341 197.5,152.5 Z"/></g>
<g><path style="opacity:1" fill="#3fb9b3" d="M 322.5,142.5 C 324.581,143.727 326.581,145.227 328.5,147C 327,148.5 325.5,150 324,151.5C 322.649,149.981 321.149,148.648 319.5,147.5C 320.952,146.06 321.952,144.394 322.5,142.5 Z"/></g>
<g><path style="opacity:1" fill="#2cb5af" d="M 48.5,145.5 C 54.532,147.544 54.8653,150.21 49.5,153.5C 47.8333,152.5 46.5,151.167 45.5,149.5C 46.8262,148.358 47.8262,147.024 48.5,145.5 Z"/></g>
<g><path style="opacity:1" fill="#9b8171" d="M 174.5,148.5 C 176.429,148.231 178.095,148.731 179.5,150C 177.5,150.667 175.5,150.667 173.5,150C 174.056,149.617 174.389,149.117 174.5,148.5 Z"/></g>
<g><path style="opacity:1" fill="#998170" d="M 190.5,148.5 C 191.873,148.343 193.207,148.51 194.5,149C 195.451,149.718 195.617,150.551 195,151.5C 193.266,150.751 191.433,150.251 189.5,150C 190.056,149.617 190.389,149.117 190.5,148.5 Z"/></g>
<g><path style="opacity:1" fill="#a6abad" d="M 74.5,145.5 C 72.8955,153.458 71.3955,161.458 70,169.5C 69.2698,160.852 70.7698,152.852 74.5,145.5 Z"/></g>
<g><path style="opacity:1" fill="#2b282e" d="M 176.5,153.5 C 178.337,153.639 178.67,154.306 177.5,155.5C 176.702,155.043 176.369,154.376 176.5,153.5 Z"/></g>
<g><path style="opacity:1" fill="#947d6d" d="M 185.5,151.5 C 187.339,154.529 188.672,157.862 189.5,161.5C 188.652,163.283 187.319,163.783 185.5,163C 186.516,162.481 187.182,161.647 187.5,160.5C 186.414,157.58 185.748,154.58 185.5,151.5 Z"/></g>
<g><path style="opacity:1" fill="#2e3035" d="M 191.5,154.5 C 193.337,154.639 193.67,155.306 192.5,156.5C 191.702,156.043 191.369,155.376 191.5,154.5 Z"/></g>
<g><path style="opacity:1" fill="#fdfdfd" d="M 151.5,161.5 C 152.728,162.306 153.728,163.306 154.5,164.5C 155.167,165.833 156.167,166.833 157.5,167.5C 157.973,168.906 158.973,169.573 160.5,169.5C 160.5,175.167 160.5,180.833 160.5,186.5C 151.597,186.084 143.597,188.417 136.5,193.5C 131.483,192.068 127.649,189.068 125,184.5C 121.963,176.3 123.463,169.133 129.5,163C 136.517,158.867 143.85,158.367 151.5,161.5 Z"/></g>
<g><path style="opacity:1" fill="#a8adaf" d="M 64.5,140.5 C 62.6008,149.884 60.7675,159.218 59,168.5C 58.3496,181.227 58.6829,193.894 60,206.5C 57.5862,191.933 56.9195,177.266 58,162.5C 59.3613,154.807 61.528,147.473 64.5,140.5 Z"/></g>
<g><path style="opacity:1" fill="#eaeaea" d="M 215.5,236.5 C 214.784,231.651 213.784,226.985 212.5,222.5C 214.68,220.152 216.68,217.652 218.5,215C 217.876,212.915 216.876,211.082 215.5,209.5C 219.084,211.19 222.917,212.19 227,212.5C 235.219,212.116 239.719,207.783 240.5,199.5C 237.814,187.823 230.814,183.99 219.5,188C 213.123,193.785 211.79,200.618 215.5,208.5C 212.149,202.307 207.482,197.14 201.5,193C 196.108,191.92 190.775,190.754 185.5,189.5C 185.5,189.167 185.5,188.833 185.5,188.5C 187.117,189.038 188.784,189.371 190.5,189.5C 190.5,188.5 190.5,187.5 190.5,186.5C 193.448,186.777 196.281,186.444 199,185.5C 200.047,183.238 201.213,181.071 202.5,179C 201.209,176.95 200.709,174.783 201,172.5C 204.246,169.124 208.08,167.291 212.5,167C 213.685,168.353 215.019,169.52 216.5,170.5C 219.084,169.607 221.751,169.274 224.5,169.5C 224.453,165.559 226.286,163.226 230,162.5C 233.2,163.068 236.367,163.735 239.5,164.5C 239.223,167.448 239.556,170.281 240.5,173C 242.959,173.97 245.292,175.137 247.5,176.5C 249.383,175.976 251.216,175.309 253,174.5C 255.734,177.624 258.234,180.957 260.5,184.5C 256.707,188.026 255.54,192.36 257,197.5C 259.955,198.539 262.121,200.372 263.5,203C 262.714,206.458 262.38,209.958 262.5,213.5C 256.083,212.199 251.75,214.533 249.5,220.5C 251.225,222.957 251.725,225.623 251,228.5C 247.751,229.917 244.917,231.917 242.5,234.5C 240.063,233.197 237.896,231.53 236,229.5C 233.595,230.274 231.095,230.774 228.5,231C 227.692,233.088 226.692,235.088 225.5,237C 222.112,237.659 218.779,237.492 215.5,236.5 Z"/></g>
<g><path style="opacity:1" fill="#725d50" d="M 179.5,164.5 C 181.269,165.421 182.935,166.588 184.5,168C 181.632,168.64 179.965,167.473 179.5,164.5 Z"/></g>
<g><path style="opacity:1" fill="#43bab4" d="M 29.5,166.5 C 31.0783,167.066 32.4116,168.066 33.5,169.5C 32.4688,170.7 31.6355,172.034 31,173.5C 29.647,172.315 28.4803,170.981 27.5,169.5C 28.6119,168.735 29.2786,167.735 29.5,166.5 Z"/></g>
<g><path style="opacity:1" fill="#716c6c" d="M 157.5,167.5 C 159.179,167.285 160.179,167.952 160.5,169.5C 158.973,169.573 157.973,168.906 157.5,167.5 Z"/></g>
<g><path style="opacity:1" fill="#b1b5b7" d="M 288.5,211.5 C 289.329,206.179 290.162,200.846 291,195.5C 291.509,181.48 291.509,167.48 291,153.5C 293.316,166.067 293.983,178.734 293,191.5C 292.415,198.494 290.915,205.161 288.5,211.5 Z"/></g>
<g><path style="opacity:1" fill="#abafb2" d="M 68.5,170.5 C 68.8991,185.853 70.3991,201.186 73,216.5C 70.7188,210.039 69.3855,203.372 69,196.5C 68.5002,187.84 68.3336,179.173 68.5,170.5 Z"/></g>
<g><path style="opacity:1" fill="#d2d4d5" d="M 299.5,156.5 C 300.167,156.833 300.833,157.167 301.5,157.5C 306.844,187.558 301.844,215.558 286.5,241.5C 288.352,236.444 290.518,231.444 293,226.5C 301.578,203.836 303.745,180.502 299.5,156.5 Z"/></g>
<g><path style="opacity:1" fill="#ea996e" d="M 170.5,177.5 C 174.714,180.373 179.381,181.706 184.5,181.5C 184.5,182.5 184.5,183.5 184.5,184.5C 178.099,185.3 173.432,182.967 170.5,177.5 Z"/></g>
<g><path style="opacity:1" fill="#fefefe" d="M 215.5,209.5 C 215.5,209.167 215.5,208.833 215.5,208.5C 211.79,200.618 213.123,193.785 219.5,188C 230.814,183.99 237.814,187.823 240.5,199.5C 239.719,207.783 235.219,212.116 227,212.5C 222.917,212.19 219.084,211.19 215.5,209.5 Z"/></g>
<g><path style="opacity:1" fill="#12b3ad" d="M 160.5,186.5 C 162.954,190.789 166.288,194.289 170.5,197C 178.137,199.183 183.137,196.683 185.5,189.5C 190.775,190.754 196.108,191.92 201.5,193C 207.482,197.14 212.149,202.307 215.5,208.5C 215.5,208.833 215.5,209.167 215.5,209.5C 216.876,211.082 217.876,212.915 218.5,215C 216.68,217.652 214.68,220.152 212.5,222.5C 210.695,223.237 209.029,224.237 207.5,225.5C 206.679,238.834 205.846,252.168 205,265.5C 203.735,267.397 202.069,268.73 200,269.5C 185.617,265.755 171.117,262.588 156.5,260C 156,259.5 155.5,259 155,258.5C 154.704,247.639 153.871,236.972 152.5,226.5C 152.082,225.778 151.416,225.278 150.5,225C 144.843,224.501 139.176,224.334 133.5,224.5C 133.167,224.5 132.833,224.5 132.5,224.5C 131.167,224.5 129.833,224.5 128.5,224.5C 128.5,221.5 128.5,218.5 128.5,215.5C 129.774,207.68 132.441,200.346 136.5,193.5C 143.597,188.417 151.597,186.084 160.5,186.5 Z"/></g>
<g><path style="opacity:1" fill="#49bcb7" d="M 74.5,188.5 C 78.9506,190.367 79.2839,192.7 75.5,195.5C 74.1667,194.833 73.1667,193.833 72.5,192.5C 73.6302,191.378 74.2969,190.044 74.5,188.5 Z"/></g>
<g><path style="opacity:1" fill="#babdbf" d="M 288.5,211.5 C 286.82,220.03 283.654,228.03 279,235.5C 278.333,234.5 278.333,233.5 279,232.5C 282.672,225.616 285.839,218.616 288.5,211.5 Z"/></g>
<g><path style="opacity:1" fill="#09b3ad" d="M 374.5,216.5 C 374.5,301.833 374.5,387.167 374.5,472.5C 249.5,472.5 124.5,472.5 -0.5,472.5C -0.5,394.833 -0.5,317.167 -0.5,239.5C 2.93869,239.253 6.27203,239.586 9.5,240.5C 19.4712,254.305 31.3045,266.305 45,276.5C 46.6424,276.022 47.8091,275.022 48.5,273.5C 52.5418,271.638 56.2084,269.138 59.5,266C 63.6432,265.62 64.3099,266.953 61.5,270C 56.8249,272.336 52.4916,275.169 48.5,278.5C 50.8543,281.688 53.6876,284.355 57,286.5C 61.3719,282.304 66.2052,278.637 71.5,275.5C 72.1667,275.5 72.8333,275.5 73.5,275.5C 74.5109,277.402 74.6776,279.402 74,281.5C 72.664,285.505 70.4973,289.005 67.5,292C 67.6448,292.772 67.9781,293.439 68.5,294C 76.4774,299.098 84.8107,303.431 93.5,307C 97.6805,309.35 102.014,309.85 106.5,308.5C 106.33,309.822 106.663,310.989 107.5,312C 110.022,313.341 112.689,314.174 115.5,314.5C 115.842,315.338 116.508,315.672 117.5,315.5C 117.5,315.833 117.5,316.167 117.5,316.5C 116.876,316.917 116.543,317.584 116.5,318.5C 117.926,325.361 119.259,332.194 120.5,339C 128.159,339.5 135.826,339.666 143.5,339.5C 144.833,340.167 145.833,341.167 146.5,342.5C 138.242,343.06 129.909,343.894 121.5,345C 115.653,350.926 116.653,355.426 124.5,358.5C 159.012,358.835 193.345,359.835 227.5,361.5C 227.5,361.833 227.5,362.167 227.5,362.5C 192.498,362.333 157.498,362.5 122.5,363C 115.985,367.626 115.985,372.293 122.5,377C 155.669,377.168 188.669,377.668 221.5,378.5C 221.672,379.492 221.338,380.158 220.5,380.5C 189.832,380.333 159.165,380.5 128.5,381C 123.244,385.924 123.244,390.924 128.5,396C 133.75,396.193 138.917,396.693 144,397.5C 149.5,407.833 155,418.167 160.5,428.5C 161.5,429.333 162.5,430.167 163.5,431C 177.093,432.446 190.76,432.946 204.5,432.5C 206.238,426.627 208.571,420.961 211.5,415.5C 211.957,414.702 212.624,414.369 213.5,414.5C 219.447,417.473 225.447,420.473 231.5,423.5C 232.176,422.398 232.842,421.398 233.5,420.5C 234.822,420.67 235.989,420.337 237,419.5C 238.059,416.382 239.392,413.382 241,410.5C 242.022,404.731 242.855,399.064 243.5,393.5C 250.313,394.491 257.313,394.825 264.5,394.5C 264.818,389.968 264.485,385.634 263.5,381.5C 264.568,380.566 265.901,380.232 267.5,380.5C 267.534,356.827 267.201,333.16 266.5,309.5C 312.394,289.936 348.394,258.936 374.5,216.5 Z"/></g>
<g><path style="opacity:1" fill="#b6babc" d="M 66.5,226.5 C 63.0972,220.674 61.2639,214.341 61,207.5C 63.3049,213.724 65.1383,220.057 66.5,226.5 Z"/></g>
<g><path style="opacity:1" fill="#fbbc9b" d="M 212.5,222.5 C 213.784,226.985 214.784,231.651 215.5,236.5C 215.5,239.167 215.5,241.833 215.5,244.5C 214.833,245.167 214.167,245.833 213.5,246.5C 211.337,257.8 209.337,269.134 207.5,280.5C 205.602,279.904 203.935,279.904 202.5,280.5C 183.48,280.754 164.48,280.421 145.5,279.5C 143.926,279.063 142.759,278.063 142,276.5C 134.055,260.1 130.889,242.767 132.5,224.5C 132.833,224.5 133.167,224.5 133.5,224.5C 139.658,225.465 145.992,226.132 152.5,226.5C 153.871,236.972 154.704,247.639 155,258.5C 155.5,259 156,259.5 156.5,260C 171.117,262.588 185.617,265.755 200,269.5C 202.069,268.73 203.735,267.397 205,265.5C 205.846,252.168 206.679,238.834 207.5,225.5C 209.029,224.237 210.695,223.237 212.5,222.5 Z"/></g>
<g><path style="opacity:1" fill="#7eb6a4" d="M 133.5,224.5 C 139.176,224.334 144.843,224.501 150.5,225C 151.416,225.278 152.082,225.778 152.5,226.5C 145.992,226.132 139.658,225.465 133.5,224.5 Z"/></g>
<g><path style="opacity:1" fill="#ebebeb" d="M 366.5,171.5 C 367.833,171.5 369.167,171.5 370.5,171.5C 370.5,172.833 370.5,174.167 370.5,175.5C 363.26,176.284 356.427,178.284 350,181.5C 347.952,193.909 344.786,205.909 340.5,217.5C 342.782,218.9 344.282,218.234 345,215.5C 345.308,216.308 345.808,216.975 346.5,217.5C 354.287,216.462 361.954,214.795 369.5,212.5C 370.833,213.833 370.833,215.167 369.5,216.5C 346.095,223.573 322.428,229.907 298.5,235.5C 297.429,233.675 298.096,232.508 300.5,232C 312.075,228.547 323.742,225.214 335.5,222C 339.082,206.988 343.415,192.154 348.5,177.5C 354.128,175.808 359.795,174.308 365.5,173C 366.056,172.617 366.389,172.117 366.5,171.5 Z"/></g>
<g><path style="opacity:1" fill="#d0d0d0" d="M -0.5,-0.5 C 0.166667,-0.5 0.833333,-0.5 1.5,-0.5C 1.33343,13.504 1.50009,27.504 2,41.5C 3.41957,43.422 5.25291,44.7554 7.5,45.5C 5.5,46.8333 3.83333,48.5 2.5,50.5C 2.16667,64.1667 1.83333,77.8333 1.5,91.5C 1.52527,105.783 2.19194,119.949 3.5,134C 2.21614,141.539 1.54947,149.206 1.5,157C 1.66667,164.167 1.83333,171.333 2,178.5C 4.59179,177.018 6.92512,177.352 9,179.5C 18.926,197.522 28.426,215.688 37.5,234C 37.4148,235.107 37.0814,236.107 36.5,237C 27.3819,238.401 18.3819,239.567 9.5,240.5C 6.27203,239.586 2.93869,239.253 -0.5,239.5C -0.5,159.5 -0.5,79.5 -0.5,-0.5 Z"/></g>
<g><path style="opacity:1" fill="#f5f5f5" d="M 1.5,179.5 C 3.60395,179.201 5.60395,179.534 7.5,180.5C 16.7696,197.373 25.7696,214.373 34.5,231.5C 23.9334,233.762 13.2667,234.595 2.5,234C 1.51829,226.253 1.18496,218.42 1.5,210.5C 16.4558,212.35 18.2891,209.35 7,201.5C 6.91787,198.252 5.41787,195.919 2.5,194.5C 1.50585,189.544 1.17252,184.544 1.5,179.5 Z"/></g>
<g><path style="opacity:1" fill="#25b5af" d="M 93.5,260.5 C 93.1667,260.5 92.8333,260.5 92.5,260.5C 91.9523,250.287 86.6189,244.62 76.5,243.5C 76.5,242.833 76.5,242.167 76.5,241.5C 84.5666,237.482 93.0666,236.482 102,238.5C 102.219,247.011 99.3853,254.344 93.5,260.5 Z"/></g>
<g><path style="opacity:1" fill="#dfdfdf" d="M 286.5,241.5 C 286.716,243.681 285.883,245.347 284,246.5C 281.493,259.052 279.826,271.719 279,284.5C 278.617,285.056 278.117,285.389 277.5,285.5C 275.937,287.596 275.27,290.596 275.5,294.5C 270.637,294.181 265.97,294.514 261.5,295.5C 232.124,296.008 202.791,296.008 173.5,295.5C 173.5,294.5 173.5,293.5 173.5,292.5C 184.5,292.5 195.5,292.5 206.5,292.5C 208.658,281.303 210.825,269.97 213,258.5C 213.499,254.514 213.666,250.514 213.5,246.5C 214.167,245.833 214.833,245.167 215.5,244.5C 237.7,244.183 259.866,244.516 282,245.5C 283.715,244.396 285.215,243.062 286.5,241.5 Z"/></g>
<g><path style="opacity:1" fill="#b5b9bb" d="M 66.5,226.5 C 69.538,230.75 72.038,235.417 74,240.5C 74.6708,241.252 75.5041,241.586 76.5,241.5C 76.5,242.167 76.5,242.833 76.5,243.5C 72.312,246.757 67.9786,249.757 63.5,252.5C 66.3067,248.862 69.6401,245.695 73.5,243C 70.7583,237.682 68.425,232.182 66.5,226.5 Z"/></g>
<g><path style="opacity:1" fill="#31b6b0" d="M 59.5,254.5 C 54.9534,260.04 49.2868,264.04 42.5,266.5C 39.8183,265.099 37.1517,263.599 34.5,262C 32.6063,260.921 32.273,259.587 33.5,258C 41.6968,253.508 50.3635,252.341 59.5,254.5 Z"/></g>
<g><path style="opacity:1" fill="#f1f2f2" d="M 76.5,243.5 C 86.6189,244.62 91.9523,250.287 92.5,260.5C 85.1982,265.144 78.1982,270.144 71.5,275.5C 66.2052,278.637 61.3719,282.304 57,286.5C 53.6876,284.355 50.8543,281.688 48.5,278.5C 52.4916,275.169 56.8249,272.336 61.5,270C 64.3099,266.953 63.6432,265.62 59.5,266C 56.2084,269.138 52.5418,271.638 48.5,273.5C 46.5,271.167 44.5,268.833 42.5,266.5C 49.2868,264.04 54.9534,260.04 59.5,254.5C 60.6049,253.4 61.9382,252.733 63.5,252.5C 67.9786,249.757 72.312,246.757 76.5,243.5 Z"/></g>
<g><path style="opacity:1" fill="#b0b4b6" d="M 68.5,254.5 C 70.2095,249.817 73.5429,248.317 78.5,250C 80.3293,251.113 81.1626,252.613 81,254.5C 76.8443,249.272 72.6776,249.272 68.5,254.5 Z"/></g>
<g><path style="opacity:1" fill="#5ec1bc" d="M 321.5,252.5 C 322.5,252.5 323.5,252.5 324.5,252.5C 324.5,253.5 324.5,254.5 324.5,255.5C 323.5,255.5 322.5,255.5 321.5,255.5C 321.5,254.5 321.5,253.5 321.5,252.5 Z"/></g>
<g><path style="opacity:1" fill="#a59d98" d="M 213.5,246.5 C 213.666,250.514 213.499,254.514 213,258.5C 210.825,269.97 208.658,281.303 206.5,292.5C 206.443,291.391 206.11,290.391 205.5,289.5C 207.118,286.829 207.785,283.829 207.5,280.5C 209.337,269.134 211.337,257.8 213.5,246.5 Z"/></g>
<g><path style="opacity:1" fill="#acb1b3" d="M 68.5,254.5 C 68.4837,260.653 71.4837,263.486 77.5,263C 79.3783,261.457 80.8783,259.624 82,257.5C 81.2041,263.585 77.7041,265.752 71.5,264C 67.6903,261.543 66.6903,258.377 68.5,254.5 Z"/></g>
<g><path style="opacity:1" fill="#aeb3b5" d="M 92.5,260.5 C 92.8333,260.5 93.1667,260.5 93.5,260.5C 92.8592,261.482 92.1925,262.482 91.5,263.5C 93.0762,267.238 95.2429,270.571 98,273.5C 98.9819,274.759 99.3152,276.092 99,277.5C 95.8997,272.955 92.5664,268.622 89,264.5C 83.9496,268.392 78.7829,272.059 73.5,275.5C 72.8333,275.5 72.1667,275.5 71.5,275.5C 78.1982,270.144 85.1982,265.144 92.5,260.5 Z"/></g>
<g><path style="opacity:1" fill="#ebeaea" d="M 368.5,265.5 C 369.765,266.514 370.431,268.014 370.5,270C 370.167,271.5 369.833,273 369.5,274.5C 368.352,272.851 367.019,271.351 365.5,270C 366.883,268.729 367.883,267.229 368.5,265.5 Z"/></g>
<g><path style="opacity:1" fill="#35b6b1" d="M 296.5,270.5 C 298.148,271.81 299.814,273.143 301.5,274.5C 300.167,276.167 298.833,277.833 297.5,279.5C 292.906,276.739 292.573,273.739 296.5,270.5 Z"/></g>
<g><path style="opacity:1" fill="#b7b9bb" d="M 216.5,247.5 C 217.638,250.304 217.805,253.304 217,256.5C 215.252,264.815 213.585,273.148 212,281.5C 212.908,270.117 214.408,258.783 216.5,247.5 Z"/></g>
<g><path style="opacity:1" fill="#e8e4e2" d="M 202.5,280.5 C 203.935,279.904 205.602,279.904 207.5,280.5C 207.785,283.829 207.118,286.829 205.5,289.5C 204.735,286.33 203.735,283.33 202.5,280.5 Z"/></g>
<g><path style="opacity:1" fill="#bfc2c4" d="M 117.5,315.5 C 116.508,315.672 115.842,315.338 115.5,314.5C 111.719,302.348 106.886,290.681 101,279.5C 108.288,290.588 113.788,302.588 117.5,315.5 Z"/></g>
<g><path style="opacity:1" fill="#b1b4b6" d="M 277.5,285.5 C 277.058,289.154 276.724,292.821 276.5,296.5C 271.833,296.5 267.167,296.5 262.5,296.5C 261.833,296.5 261.5,296.167 261.5,295.5C 265.97,294.514 270.637,294.181 275.5,294.5C 275.27,290.596 275.937,287.596 277.5,285.5 Z"/></g>
<g><path style="opacity:1" fill="#263238" d="M 145.5,279.5 C 164.48,280.421 183.48,280.754 202.5,280.5C 203.735,283.33 204.735,286.33 205.5,289.5C 206.11,290.391 206.443,291.391 206.5,292.5C 195.5,292.5 184.5,292.5 173.5,292.5C 173.5,293.5 173.5,294.5 173.5,295.5C 202.791,296.008 232.124,296.008 261.5,295.5C 261.5,296.167 261.833,296.5 262.5,296.5C 264.714,300.615 266.047,304.948 266.5,309.5C 267.201,333.16 267.534,356.827 267.5,380.5C 265.901,380.232 264.568,380.566 263.5,381.5C 256.814,381.527 250.148,381.861 243.5,382.5C 243.5,386.167 243.5,389.833 243.5,393.5C 242.855,399.064 242.022,404.731 241,410.5C 239.392,413.382 238.059,416.382 237,419.5C 235.989,420.337 234.822,420.67 233.5,420.5C 226.944,417.646 220.277,414.979 213.5,412.5C 212.005,412.585 211.005,411.919 210.5,410.5C 214.039,400.55 217.372,390.55 220.5,380.5C 221.338,380.158 221.672,379.492 221.5,378.5C 223.288,373.142 225.288,367.809 227.5,362.5C 227.5,362.167 227.5,361.833 227.5,361.5C 228.404,360.791 228.737,359.791 228.5,358.5C 229.234,357.292 229.567,355.959 229.5,354.5C 219.908,352.21 210.575,349.043 201.5,345C 183.063,344.999 164.73,344.166 146.5,342.5C 145.833,341.167 144.833,340.167 143.5,339.5C 143.068,338.29 142.401,337.29 141.5,336.5C 139.609,330.539 137.275,324.873 134.5,319.5C 133.491,314.204 133.324,308.871 134,303.5C 137.25,295.124 141.083,287.124 145.5,279.5 Z"/></g>
<g><path style="opacity:1" fill="#37b7b1" d="M 97.5,295.5 C 102.113,297.047 102.447,299.047 98.5,301.5C 95.025,299.916 94.6917,297.916 97.5,295.5 Z"/></g>
<g><path style="opacity:1" fill="#e7e8e8" d="M 59.5,315.5 C 72.4995,314.669 79.9995,320.669 82,333.5C 86.6667,336.833 91.3333,340.167 96,343.5C 97.3014,345.365 97.6347,347.365 97,349.5C 89.456,351.223 82.2894,350.223 75.5,346.5C 59.8412,355.002 49.6746,350.669 45,333.5C 38.8981,329.734 33.7314,324.9 29.5,319C 29.6448,318.228 29.9781,317.561 30.5,317C 36.9509,316.692 43.2842,317.526 49.5,319.5C 52.668,317.643 56.0013,316.309 59.5,315.5 Z"/></g>
<g><path style="opacity:1" fill="#12b4ae" d="M 117.5,316.5 C 122.999,317.955 128.666,318.955 134.5,319.5C 137.275,324.873 139.609,330.539 141.5,336.5C 135.021,337.491 128.354,337.824 121.5,337.5C 120.488,330.429 119.155,323.429 117.5,316.5 Z"/></g>
<g><path style="opacity:1" fill="#2cb5af" d="M 36.5,318.5 C 40.3735,319.761 44.3735,320.428 48.5,320.5C 47.6403,323.911 46.4737,327.244 45,330.5C 41.7202,328.557 38.7202,326.223 36,323.5C 35.3603,321.735 35.5269,320.068 36.5,318.5 Z"/></g>
<g><path style="opacity:1" fill="#e2e0e0" d="M 313.5,333.5 C 321.088,332.071 324.255,335.071 323,342.5C 319.333,346.5 315.667,346.5 312,342.5C 311.068,339.177 311.568,336.177 313.5,333.5 Z"/></g>
<g><path style="opacity:1" fill="#0b908d" d="M 117.5,316.5 C 119.155,323.429 120.488,330.429 121.5,337.5C 128.354,337.824 135.021,337.491 141.5,336.5C 142.401,337.29 143.068,338.29 143.5,339.5C 135.826,339.666 128.159,339.5 120.5,339C 119.259,332.194 117.926,325.361 116.5,318.5C 116.543,317.584 116.876,316.917 117.5,316.5 Z"/></g>
<g><path style="opacity:1" fill="#22b4ae" d="M 80.5,335.5 C 84.3722,337.193 87.8722,339.526 91,342.5C 91.4935,344.134 91.6602,345.801 91.5,347.5C 86.1689,348.021 81.1689,347.021 76.5,344.5C 79.1993,342.102 80.5326,339.102 80.5,335.5 Z"/></g>
<g><path style="opacity:1" fill="#445963" d="M 146.5,342.5 C 164.73,344.166 183.063,344.999 201.5,345C 210.575,349.043 219.908,352.21 229.5,354.5C 229.567,355.959 229.234,357.292 228.5,358.5C 193.833,358.5 159.167,358.5 124.5,358.5C 116.653,355.426 115.653,350.926 121.5,345C 129.909,343.894 138.242,343.06 146.5,342.5 Z"/></g>
<g><path style="opacity:1" fill="#208d8d" d="M 124.5,358.5 C 159.167,358.5 193.833,358.5 228.5,358.5C 228.737,359.791 228.404,360.791 227.5,361.5C 193.345,359.835 159.012,358.835 124.5,358.5 Z"/></g>
<g><path style="opacity:1" fill="#dbe1e0" d="M 282.5,361.5 C 284.337,361.639 284.67,362.306 283.5,363.5C 282.702,363.043 282.369,362.376 282.5,361.5 Z"/></g>
<g><path style="opacity:1" fill="#435b64" d="M 227.5,362.5 C 225.288,367.809 223.288,373.142 221.5,378.5C 188.669,377.668 155.669,377.168 122.5,377C 115.985,372.293 115.985,367.626 122.5,363C 157.498,362.5 192.498,362.333 227.5,362.5 Z"/></g>
<g><path style="opacity:1" fill="#e6eaea" d="M 10.5,379.5 C 12.5952,380.412 14.5952,381.579 16.5,383C 14.36,383.973 12.6933,385.473 11.5,387.5C 10.5,385.833 9.16667,384.5 7.5,383.5C 8.52435,382.148 9.52435,380.815 10.5,379.5 Z"/></g>
<g><path style="opacity:1" fill="#445963" d="M 220.5,380.5 C 217.372,390.55 214.039,400.55 210.5,410.5C 211.005,411.919 212.005,412.585 213.5,412.5C 213.5,413.167 213.5,413.833 213.5,414.5C 212.624,414.369 211.957,414.702 211.5,415.5C 208.571,420.961 206.238,426.627 204.5,432.5C 190.76,432.946 177.093,432.446 163.5,431C 162.5,430.167 161.5,429.333 160.5,428.5C 155,418.167 149.5,407.833 144,397.5C 138.917,396.693 133.75,396.193 128.5,396C 123.244,390.924 123.244,385.924 128.5,381C 159.165,380.5 189.832,380.333 220.5,380.5 Z"/></g>
<g><path style="opacity:1" fill="#fbbe9c" d="M 263.5,381.5 C 263.5,385.5 263.5,389.5 263.5,393.5C 256.833,393.5 250.167,393.5 243.5,393.5C 243.5,389.833 243.5,386.167 243.5,382.5C 250.148,381.861 256.814,381.527 263.5,381.5 Z"/></g>
<g><path style="opacity:1" fill="#87b7a3" d="M 263.5,381.5 C 264.485,385.634 264.818,389.968 264.5,394.5C 257.313,394.825 250.313,394.491 243.5,393.5C 250.167,393.5 256.833,393.5 263.5,393.5C 263.5,389.5 263.5,385.5 263.5,381.5 Z"/></g>
<g><path style="opacity:1" fill="#e9eaea" d="M 326.5,392.5 C 332.45,394.714 332.783,397.381 327.5,400.5C 325.972,399.139 324.305,397.972 322.5,397C 324.384,395.951 325.718,394.451 326.5,392.5 Z"/></g>
<g><path style="opacity:1" fill="#e6eae9" d="M 30.5,398.5 C 32.8049,400.781 35.4716,402.781 38.5,404.5C 35.8103,406.356 33.6437,408.689 32,411.5C 29.8333,409.333 27.6667,407.167 25.5,405C 27.7899,403.223 29.4566,401.056 30.5,398.5 Z"/></g>
<g><path style="opacity:1" fill="#d0dedd" d="M 250.5,406.5 C 253.861,407.203 254.194,408.537 251.5,410.5C 250.571,409.311 250.238,407.978 250.5,406.5 Z"/></g>
<g><path style="opacity:1" fill="#e8bb9a" d="M 213.5,412.5 C 220.277,414.979 226.944,417.646 233.5,420.5C 232.842,421.398 232.176,422.398 231.5,423.5C 225.447,420.473 219.447,417.473 213.5,414.5C 213.5,413.833 213.5,413.167 213.5,412.5 Z"/></g>
<g><path style="opacity:1" fill="#9be0de" d="M 244.5,418.5 C 303.129,420.162 303.129,421.162 244.5,421.5C 244.5,420.5 244.5,419.5 244.5,418.5 Z"/></g>
<g><path style="opacity:1" fill="#c9dcdb" d="M 213.5,429.5 C 215.048,429.821 215.715,430.821 215.5,432.5C 212.752,432.598 212.086,431.598 213.5,429.5 Z"/></g>
<g><path style="opacity:1" fill="#0c908e" d="M 201.5,438.5 C 201.5,439.167 201.5,439.833 201.5,440.5C -59.8333,439.833 -59.8333,439.167 201.5,438.5 Z"/></g>
<g><path style="opacity:1" fill="#089c98" d="M 228.5,439.5 C 275.668,438.169 323.002,438.169 370.5,439.5C 361.19,440.498 351.857,440.832 342.5,440.5C 304.67,439.501 266.67,439.168 228.5,439.5 Z"/></g>
<g><path style="opacity:1" fill="#117575" d="M 228.5,439.5 C 266.67,439.168 304.67,439.501 342.5,440.5C 305.165,440.333 267.832,440.5 230.5,441C 226.364,444.545 225.697,444.045 228.5,439.5 Z"/></g>
<g><path style="opacity:1" fill="#dcdede" d="M 207.5,443.5 C 212.786,445.26 217.786,447.593 222.5,450.5C 200.393,453.606 178.393,453.106 156.5,449C 155.185,447.605 155.519,446.605 157.5,446C 161.442,445.007 165.442,444.34 169.5,444C 182.162,443.5 194.829,443.333 207.5,443.5 Z"/></g>
<g><path style="opacity:1" fill="#9de0de" d="M 222.5,450.5 C 217.786,447.593 212.786,445.26 207.5,443.5C 205.819,441.992 203.819,440.992 201.5,440.5C 201.5,439.833 201.5,439.167 201.5,438.5C 201.783,437.711 202.283,437.044 203,436.5C 215.201,443.353 227.701,449.853 240.5,456C 241.711,456.893 241.711,457.726 240.5,458.5C 234.673,455.249 228.673,452.582 222.5,450.5 Z"/></g>
</svg>
